<?xml version="1.0" encoding="utf-8"?>
<!-- Generator: Adobe Illustrator 23.0.3, SVG Export Plug-In . SVG Version: 6.00 Build 0)  -->
<svg version="1.1" id="Layer_1" xmlns="http://www.w3.org/2000/svg" xmlns:xlink="http://www.w3.org/1999/xlink" x="0px" y="0px"
	 viewBox="0 0 841.9 595.3" style="enable-background:new 0 0 841.9 595.3;" xml:space="preserve">
<style type="text/css">
	.st0{fill:#FF9F1C;}
	.st1{fill:#011627;}
	.st2{fill:#FDFFFC;}
	.st3{font-family:'DINAlternate-Bold';}
	.st4{font-size:24px;}
</style>
<rect class="st0" width="841.9" height="595.3"/>
<path class="st1" d="M598.7,526.5c-2.4-0.6-4.2-1.4-4.9-1.7c-54.8-22.9-98-64.6-98-64.6c-67.4-65.1-154.5-54.8-155.5-85.6
	c-1.2-38.8-38.1-68.3-27.2-79.7c7.2-7.6,20.7,1.1,30.4-7.7c12.5-11.4-1-34.4,2.2-64.5c2.8-26.3,17.7-52.3,35.9-66.4
	c49.6-38.5,131.4,5.6,140.6,10.5c7.5,3.9,78.9,42.8,76.5,93.8c-0.8,17-9.1,20.9-15,37.2c-28.5,77.8,94,168.2,68.1,211.8
	C642.4,525.2,616.5,531.1,598.7,526.5z"/>
<circle class="st2" cx="419.9" cy="249.5" r="121.5"/>
<path class="st1" d="M476.5,278.2l1.8-0.9c2.8-1.6,3.9-5.2,2.5-8.1c-0.6-1.2-0.1-2.2,1.7-3.2c2.8-1.5,3.5-6.3,2-9
	c-2.1-4-4.2-3.4-5-3c-1.4,0.6-2.1,2.2-1.4,3.7c0.1,0.1,0.1,0.3,0.2,0.4c0.9,1.8,0.5,3.1-1.2,4.1c-2.8,1.6-3.9,5.2-2.5,8.1
	c0.9,1.8,0.9,1.8-0.8,2.7c-4,2.1-3.4,4.2-3,5C472.1,280.6,475.3,278.9,476.5,278.2z M474.6,274.7c2.7-1.5,3.1-2.7,1.6-5.4
	c-0.9-2-0.2-4.3,1.6-5.4c2.8-1.5,3.5-4,2.1-6.8c-0.3-0.6-0.2-1,0.4-1.4c0.6-0.3,1.5,0.6,2.3,2.2c1,1.8,0.5,5.4-1.2,6.3
	c-3.3,1.7-3.4,4.2-2.5,5.9c0.9,2,0.2,4.3-1.6,5.4l-1.8,0.9c-2.6,1.4-3,0.8-3.1,0.5C472.1,276.5,473,275.6,474.6,274.7z"/>
<path class="st1" d="M463.1,265.1l-0.4,0.9c-0.2,0.5-0.8,0.7-1.3,0.5l-0.9-0.4c-0.5-0.2-0.7-0.8-0.5-1.3l0.4-0.9
	c0.2-0.5,0.8-0.7,1.3-0.5l0.9,0.4C463.1,264,463.3,264.6,463.1,265.1z"/>
<text transform="matrix(0.9652 -0.2614 0.2614 0.9652 386.048 245.3617)"><tspan x="0" y="0" class="st1 st3 st4">COLLECTIVE </tspan><tspan x="-39.9" y="38.8" class="st1 st3 st4">EDIBLES</tspan></text>
<path class="st1" d="M360.1,220.5l-1.8,0.8c-2.9,1.5-4.2,4.9-3,7.9c0.5,1.2-0.1,2.2-1.9,3.1c-2.9,1.3-3.9,6-2.6,8.8
	c1.9,4.1,4,3.7,4.8,3.3c1.4-0.5,2.2-2.1,1.7-3.5c-0.1-0.1-0.1-0.3-0.2-0.4c-0.8-1.8-0.3-3.1,1.5-4c2.9-1.5,4.2-4.9,3-7.9
	c-0.8-1.8-0.8-1.8,1-2.6c4.1-1.9,3.7-4,3.3-4.8C364.6,218.4,361.3,219.9,360.1,220.5z M361.7,224.1c-2.8,1.3-3.3,2.5-2,5.3
	c0.8,2-0.1,4.3-2,5.3c-2.9,1.3-3.8,3.8-2.5,6.6c0.3,0.7,0.2,1-0.5,1.3s-1.4-0.7-2.1-2.3c-0.8-1.9-0.2-5.4,1.6-6.2
	c3.4-1.5,3.7-3.9,2.9-5.7c-0.8-2,0.1-4.3,2-5.3l1.8-0.8c2.7-1.2,3-0.6,3.1-0.3C364.3,222.5,363.3,223.4,361.7,224.1z"/>
<path class="st1" d="M376.4,245.5l0.7-0.7c0.4-0.4,1-0.4,1.4,0l0.7,0.7c0.4,0.4,0.4,1,0,1.4l-0.7,0.7c-0.4,0.4-1,0.4-1.4,0l-0.7-0.7
	C376,246.5,376,245.9,376.4,245.5z"/>
<path class="st1" d="M290.9,286"/>
</svg>
